<mxfile host="app.diagrams.net" agent="Mozilla/5.0 (Macintosh; Intel Mac OS X 10_15_7) AppleWebKit/537.36 (KHTML, like Gecko) Chrome/127.0.0.0 Safari/537.36" version="24.7.7">
  <diagram name="Strona-1" id="4TEFPl69Cse3_rAayXzU">
    <mxGraphModel dx="1194" dy="756" grid="1" gridSize="10" guides="1" tooltips="1" connect="1" arrows="1" fold="1" page="1" pageScale="1" pageWidth="827" pageHeight="1169" math="0" shadow="0">
      <root>
        <mxCell id="0" />
        <mxCell id="1" parent="0" />
        <mxCell id="enQtiHpY8bTpUroifT-B-35" style="edgeStyle=orthogonalEdgeStyle;rounded=0;orthogonalLoop=1;jettySize=auto;html=1;exitX=0.5;exitY=0;exitDx=0;exitDy=0;entryX=0.5;entryY=1;entryDx=0;entryDy=0;strokeWidth=3;" parent="1" source="j_u8a-5bsMv9L0YOcJD6-2" target="j_u8a-5bsMv9L0YOcJD6-36" edge="1">
          <mxGeometry relative="1" as="geometry" />
        </mxCell>
        <mxCell id="j_u8a-5bsMv9L0YOcJD6-2" value="&lt;b&gt;Agent Question:&lt;/b&gt;&lt;div&gt;What are the effects of crizotinib on lung adenocarcinoma?&lt;br&gt;&lt;/div&gt;" style="rounded=0;whiteSpace=wrap;html=1;fillColor=#f8cecc;strokeColor=#b85450;" parent="1" vertex="1">
          <mxGeometry x="353" y="300" width="150" height="80" as="geometry" />
        </mxCell>
        <mxCell id="j_u8a-5bsMv9L0YOcJD6-36" value="&lt;b&gt;&lt;i&gt;Embedding Vector Store&lt;/i&gt;&lt;/b&gt;" style="swimlane;fontStyle=0;childLayout=stackLayout;horizontal=1;startSize=35;horizontalStack=0;resizeParent=1;resizeParentMax=0;resizeLast=0;collapsible=1;marginBottom=0;whiteSpace=wrap;html=1;fillColor=#a0522d;fontColor=#ffffff;strokeColor=#6D1F00;rounded=1;" parent="1" vertex="1">
          <mxGeometry x="360" y="190" width="140" height="75" as="geometry" />
        </mxCell>
        <mxCell id="j_u8a-5bsMv9L0YOcJD6-37" value="&lt;b&gt;RETRIEVE DOCS&lt;/b&gt;" style="text;strokeColor=#6D1F00;fillColor=#a0522d;align=center;verticalAlign=middle;spacingLeft=4;spacingRight=4;overflow=hidden;points=[[0,0.5],[1,0.5]];portConstraint=eastwest;rotatable=0;whiteSpace=wrap;html=1;fontColor=#ffffff;rounded=1;" parent="j_u8a-5bsMv9L0YOcJD6-36" vertex="1">
          <mxGeometry y="35" width="140" height="40" as="geometry" />
        </mxCell>
        <mxCell id="enQtiHpY8bTpUroifT-B-4" style="edgeStyle=orthogonalEdgeStyle;rounded=0;orthogonalLoop=1;jettySize=auto;html=1;exitX=1;exitY=0.5;exitDx=0;exitDy=0;entryX=0;entryY=0.5;entryDx=0;entryDy=0;strokeWidth=3;" parent="1" source="j_u8a-5bsMv9L0YOcJD6-40" target="enQtiHpY8bTpUroifT-B-3" edge="1">
          <mxGeometry relative="1" as="geometry" />
        </mxCell>
        <mxCell id="j_u8a-5bsMv9L0YOcJD6-40" value="&lt;b&gt;&lt;i&gt;LLM + Prompt&lt;/i&gt;&lt;/b&gt;" style="swimlane;fontStyle=0;childLayout=stackLayout;horizontal=1;startSize=35;horizontalStack=0;resizeParent=1;resizeParentMax=0;resizeLast=0;collapsible=1;marginBottom=0;whiteSpace=wrap;html=1;fillColor=#a0522d;fontColor=#ffffff;strokeColor=#6D1F00;rounded=1;" parent="1" vertex="1">
          <mxGeometry x="540" y="190" width="140" height="75" as="geometry" />
        </mxCell>
        <mxCell id="j_u8a-5bsMv9L0YOcJD6-41" value="&lt;b&gt;GRADE DOCS&lt;/b&gt;" style="text;strokeColor=#6D1F00;fillColor=#a0522d;align=center;verticalAlign=middle;spacingLeft=4;spacingRight=4;overflow=hidden;points=[[0,0.5],[1,0.5]];portConstraint=eastwest;rotatable=0;whiteSpace=wrap;html=1;fontColor=#ffffff;rounded=1;" parent="j_u8a-5bsMv9L0YOcJD6-40" vertex="1">
          <mxGeometry y="35" width="140" height="40" as="geometry" />
        </mxCell>
        <mxCell id="enQtiHpY8bTpUroifT-B-2" style="edgeStyle=orthogonalEdgeStyle;rounded=0;orthogonalLoop=1;jettySize=auto;html=1;exitX=1;exitY=0.5;exitDx=0;exitDy=0;entryX=0.014;entryY=0.05;entryDx=0;entryDy=0;entryPerimeter=0;strokeWidth=3;" parent="1" source="j_u8a-5bsMv9L0YOcJD6-36" target="j_u8a-5bsMv9L0YOcJD6-41" edge="1">
          <mxGeometry relative="1" as="geometry" />
        </mxCell>
        <mxCell id="enQtiHpY8bTpUroifT-B-21" style="edgeStyle=orthogonalEdgeStyle;rounded=0;orthogonalLoop=1;jettySize=auto;html=1;exitX=0;exitY=1;exitDx=0;exitDy=0;entryX=0.5;entryY=0;entryDx=0;entryDy=0;strokeWidth=3;" parent="1" source="enQtiHpY8bTpUroifT-B-3" edge="1">
          <mxGeometry relative="1" as="geometry">
            <mxPoint x="730" y="370" as="targetPoint" />
            <Array as="points">
              <mxPoint x="730" y="254" />
            </Array>
          </mxGeometry>
        </mxCell>
        <mxCell id="enQtiHpY8bTpUroifT-B-23" value="&lt;b&gt;&lt;font style=&quot;font-size: 18px;&quot;&gt;YES&lt;/font&gt;&lt;/b&gt;" style="edgeLabel;html=1;align=center;verticalAlign=middle;resizable=0;points=[];" parent="enQtiHpY8bTpUroifT-B-21" vertex="1" connectable="0">
          <mxGeometry x="0.2911" relative="1" as="geometry">
            <mxPoint as="offset" />
          </mxGeometry>
        </mxCell>
        <mxCell id="enQtiHpY8bTpUroifT-B-3" value="At least 1 Document Relevant?" style="rhombus;whiteSpace=wrap;html=1;fillColor=#dae8fc;strokeColor=#6c8ebf;" parent="1" vertex="1">
          <mxGeometry x="785" y="175" width="110" height="105" as="geometry" />
        </mxCell>
        <mxCell id="enQtiHpY8bTpUroifT-B-43" style="edgeStyle=orthogonalEdgeStyle;rounded=0;orthogonalLoop=1;jettySize=auto;html=1;exitX=1;exitY=0.5;exitDx=0;exitDy=0;entryX=0.5;entryY=0;entryDx=0;entryDy=0;strokeWidth=3;" parent="1" source="enQtiHpY8bTpUroifT-B-5" target="j_u8a-5bsMv9L0YOcJD6-36" edge="1">
          <mxGeometry relative="1" as="geometry">
            <Array as="points">
              <mxPoint x="1050" y="407" />
              <mxPoint x="1050" y="140" />
              <mxPoint x="430" y="140" />
            </Array>
          </mxGeometry>
        </mxCell>
        <mxCell id="enQtiHpY8bTpUroifT-B-5" value="&lt;b&gt;&lt;i&gt;LLM + Prompt&lt;/i&gt;&lt;/b&gt;" style="swimlane;fontStyle=0;childLayout=stackLayout;horizontal=1;startSize=35;horizontalStack=0;resizeParent=1;resizeParentMax=0;resizeLast=0;collapsible=1;marginBottom=0;whiteSpace=wrap;html=1;fillColor=#a0522d;fontColor=#ffffff;strokeColor=#6D1F00;rounded=1;" parent="1" vertex="1">
          <mxGeometry x="860" y="370" width="140" height="75" as="geometry" />
        </mxCell>
        <mxCell id="enQtiHpY8bTpUroifT-B-6" value="&lt;b&gt;TRANSFORM QUESTION&lt;/b&gt;" style="text;strokeColor=#6D1F00;fillColor=#a0522d;align=center;verticalAlign=middle;spacingLeft=4;spacingRight=4;overflow=hidden;points=[[0,0.5],[1,0.5]];portConstraint=eastwest;rotatable=0;whiteSpace=wrap;html=1;fontColor=#ffffff;rounded=1;" parent="enQtiHpY8bTpUroifT-B-5" vertex="1">
          <mxGeometry y="35" width="140" height="40" as="geometry" />
        </mxCell>
        <mxCell id="enQtiHpY8bTpUroifT-B-27" style="edgeStyle=orthogonalEdgeStyle;rounded=0;orthogonalLoop=1;jettySize=auto;html=1;exitX=0.5;exitY=1;exitDx=0;exitDy=0;entryX=0.5;entryY=0;entryDx=0;entryDy=0;strokeWidth=3;" parent="1" source="enQtiHpY8bTpUroifT-B-13" target="enQtiHpY8bTpUroifT-B-25" edge="1">
          <mxGeometry relative="1" as="geometry">
            <Array as="points">
              <mxPoint x="730" y="470" />
              <mxPoint x="730" y="470" />
            </Array>
          </mxGeometry>
        </mxCell>
        <mxCell id="enQtiHpY8bTpUroifT-B-13" value="&lt;b&gt;&lt;i&gt;LLM + Prompt&lt;/i&gt;&lt;/b&gt;" style="swimlane;fontStyle=0;childLayout=stackLayout;horizontal=1;startSize=35;horizontalStack=0;resizeParent=1;resizeParentMax=0;resizeLast=0;collapsible=1;marginBottom=0;whiteSpace=wrap;html=1;fillColor=#a0522d;fontColor=#ffffff;strokeColor=#6D1F00;rounded=1;" parent="1" vertex="1">
          <mxGeometry x="660" y="370" width="140" height="75" as="geometry" />
        </mxCell>
        <mxCell id="enQtiHpY8bTpUroifT-B-14" value="&lt;b&gt;GENERATE ANSWER&lt;/b&gt;" style="text;strokeColor=#6D1F00;fillColor=#a0522d;align=center;verticalAlign=middle;spacingLeft=4;spacingRight=4;overflow=hidden;points=[[0,0.5],[1,0.5]];portConstraint=eastwest;rotatable=0;whiteSpace=wrap;html=1;fontColor=#ffffff;rounded=1;" parent="enQtiHpY8bTpUroifT-B-13" vertex="1">
          <mxGeometry y="35" width="140" height="40" as="geometry" />
        </mxCell>
        <mxCell id="enQtiHpY8bTpUroifT-B-19" style="edgeStyle=orthogonalEdgeStyle;rounded=0;orthogonalLoop=1;jettySize=auto;html=1;exitX=1;exitY=1;exitDx=0;exitDy=0;entryX=0.504;entryY=-0.05;entryDx=0;entryDy=0;entryPerimeter=0;strokeWidth=3;" parent="1" source="enQtiHpY8bTpUroifT-B-3" target="enQtiHpY8bTpUroifT-B-5" edge="1">
          <mxGeometry relative="1" as="geometry">
            <Array as="points">
              <mxPoint x="930" y="254" />
              <mxPoint x="930" y="325" />
              <mxPoint x="931" y="325" />
            </Array>
          </mxGeometry>
        </mxCell>
        <mxCell id="enQtiHpY8bTpUroifT-B-20" value="&lt;font style=&quot;font-size: 18px;&quot;&gt;&lt;b&gt;NO&lt;/b&gt;&lt;/font&gt;" style="edgeLabel;html=1;align=center;verticalAlign=middle;resizable=0;points=[];" parent="enQtiHpY8bTpUroifT-B-19" vertex="1" connectable="0">
          <mxGeometry x="0.2334" y="-1" relative="1" as="geometry">
            <mxPoint as="offset" />
          </mxGeometry>
        </mxCell>
        <mxCell id="enQtiHpY8bTpUroifT-B-34" style="edgeStyle=orthogonalEdgeStyle;rounded=0;orthogonalLoop=1;jettySize=auto;html=1;exitX=0.5;exitY=1;exitDx=0;exitDy=0;entryX=0.5;entryY=0;entryDx=0;entryDy=0;strokeWidth=3;" parent="1" source="enQtiHpY8bTpUroifT-B-25" target="enQtiHpY8bTpUroifT-B-33" edge="1">
          <mxGeometry relative="1" as="geometry" />
        </mxCell>
        <mxCell id="enQtiHpY8bTpUroifT-B-25" value="&lt;b&gt;&lt;i&gt;LLM + Prompt&lt;/i&gt;&lt;/b&gt;" style="swimlane;fontStyle=0;childLayout=stackLayout;horizontal=1;startSize=35;horizontalStack=0;resizeParent=1;resizeParentMax=0;resizeLast=0;collapsible=1;marginBottom=0;whiteSpace=wrap;html=1;fillColor=#a0522d;fontColor=#ffffff;strokeColor=#6D1F00;rounded=1;" parent="1" vertex="1">
          <mxGeometry x="660" y="480" width="140" height="75" as="geometry" />
        </mxCell>
        <mxCell id="enQtiHpY8bTpUroifT-B-26" value="&lt;b&gt;CHECK FOR HALLUCINATIONS&lt;/b&gt;" style="text;strokeColor=#6D1F00;fillColor=#a0522d;align=center;verticalAlign=middle;spacingLeft=4;spacingRight=4;overflow=hidden;points=[[0,0.5],[1,0.5]];portConstraint=eastwest;rotatable=0;whiteSpace=wrap;html=1;fontColor=#ffffff;rounded=1;" parent="enQtiHpY8bTpUroifT-B-25" vertex="1">
          <mxGeometry y="35" width="140" height="40" as="geometry" />
        </mxCell>
        <mxCell id="enQtiHpY8bTpUroifT-B-29" style="edgeStyle=orthogonalEdgeStyle;rounded=0;orthogonalLoop=1;jettySize=auto;html=1;exitX=0;exitY=0.5;exitDx=0;exitDy=0;entryX=0;entryY=0.5;entryDx=0;entryDy=0;strokeWidth=3;" parent="1" source="enQtiHpY8bTpUroifT-B-33" target="enQtiHpY8bTpUroifT-B-13" edge="1">
          <mxGeometry relative="1" as="geometry">
            <mxPoint x="665" y="640" as="sourcePoint" />
            <Array as="points">
              <mxPoint x="675" y="640" />
              <mxPoint x="610" y="640" />
              <mxPoint x="610" y="408" />
            </Array>
          </mxGeometry>
        </mxCell>
        <mxCell id="enQtiHpY8bTpUroifT-B-30" value="&lt;b&gt;&lt;font style=&quot;font-size: 18px;&quot;&gt;NO&lt;/font&gt;&lt;/b&gt;" style="edgeLabel;html=1;align=center;verticalAlign=middle;resizable=0;points=[];" parent="enQtiHpY8bTpUroifT-B-29" vertex="1" connectable="0">
          <mxGeometry x="0.0498" relative="1" as="geometry">
            <mxPoint as="offset" />
          </mxGeometry>
        </mxCell>
        <mxCell id="enQtiHpY8bTpUroifT-B-38" style="edgeStyle=orthogonalEdgeStyle;rounded=0;orthogonalLoop=1;jettySize=auto;html=1;exitX=0.5;exitY=1;exitDx=0;exitDy=0;entryX=0.5;entryY=0;entryDx=0;entryDy=0;strokeWidth=3;" parent="1" source="enQtiHpY8bTpUroifT-B-31" target="enQtiHpY8bTpUroifT-B-37" edge="1">
          <mxGeometry relative="1" as="geometry" />
        </mxCell>
        <mxCell id="enQtiHpY8bTpUroifT-B-31" value="&lt;b&gt;&lt;i&gt;LLM + Prompt&lt;/i&gt;&lt;/b&gt;" style="swimlane;fontStyle=0;childLayout=stackLayout;horizontal=1;startSize=35;horizontalStack=0;resizeParent=1;resizeParentMax=0;resizeLast=0;collapsible=1;marginBottom=0;whiteSpace=wrap;html=1;fillColor=#a0522d;fontColor=#ffffff;strokeColor=#6D1F00;rounded=1;" parent="1" vertex="1">
          <mxGeometry x="880" y="605" width="140" height="70" as="geometry" />
        </mxCell>
        <mxCell id="enQtiHpY8bTpUroifT-B-32" value="&lt;b&gt;CHECK FOR USEFULNESS&lt;/b&gt;" style="text;strokeColor=#6D1F00;fillColor=#a0522d;align=center;verticalAlign=middle;spacingLeft=4;spacingRight=4;overflow=hidden;points=[[0,0.5],[1,0.5]];portConstraint=eastwest;rotatable=0;whiteSpace=wrap;html=1;fontColor=#ffffff;rounded=1;" parent="enQtiHpY8bTpUroifT-B-31" vertex="1">
          <mxGeometry y="35" width="140" height="35" as="geometry" />
        </mxCell>
        <mxCell id="enQtiHpY8bTpUroifT-B-36" value="&lt;font style=&quot;font-size: 18px;&quot;&gt;&lt;b&gt;YES&lt;/b&gt;&lt;/font&gt;" style="edgeStyle=orthogonalEdgeStyle;rounded=0;orthogonalLoop=1;jettySize=auto;html=1;exitX=1;exitY=0.5;exitDx=0;exitDy=0;entryX=0;entryY=0.5;entryDx=0;entryDy=0;strokeWidth=3;" parent="1" source="enQtiHpY8bTpUroifT-B-33" target="enQtiHpY8bTpUroifT-B-31" edge="1">
          <mxGeometry relative="1" as="geometry" />
        </mxCell>
        <mxCell id="enQtiHpY8bTpUroifT-B-33" value="Is answer&amp;nbsp;&lt;div&gt;based&lt;div&gt;&amp;nbsp;on docs?&lt;/div&gt;&lt;/div&gt;" style="rhombus;whiteSpace=wrap;html=1;fillColor=#dae8fc;strokeColor=#6c8ebf;" parent="1" vertex="1">
          <mxGeometry x="675" y="590" width="110" height="105" as="geometry" />
        </mxCell>
        <mxCell id="enQtiHpY8bTpUroifT-B-40" style="edgeStyle=orthogonalEdgeStyle;rounded=0;orthogonalLoop=1;jettySize=auto;html=1;exitX=1;exitY=0.5;exitDx=0;exitDy=0;entryX=0.5;entryY=1;entryDx=0;entryDy=0;strokeWidth=3;" parent="1" source="enQtiHpY8bTpUroifT-B-37" target="enQtiHpY8bTpUroifT-B-5" edge="1">
          <mxGeometry relative="1" as="geometry">
            <Array as="points">
              <mxPoint x="1050" y="773" />
              <mxPoint x="1050" y="560" />
              <mxPoint x="930" y="560" />
            </Array>
          </mxGeometry>
        </mxCell>
        <mxCell id="enQtiHpY8bTpUroifT-B-42" value="&lt;font style=&quot;font-size: 18px;&quot;&gt;&lt;b&gt;NO&lt;/b&gt;&lt;/font&gt;" style="edgeLabel;html=1;align=center;verticalAlign=middle;resizable=0;points=[];" parent="enQtiHpY8bTpUroifT-B-40" vertex="1" connectable="0">
          <mxGeometry x="0.7208" relative="1" as="geometry">
            <mxPoint x="120" y="129" as="offset" />
          </mxGeometry>
        </mxCell>
        <mxCell id="enQtiHpY8bTpUroifT-B-51" style="edgeStyle=orthogonalEdgeStyle;rounded=0;orthogonalLoop=1;jettySize=auto;html=1;exitX=0;exitY=0.5;exitDx=0;exitDy=0;entryX=0.5;entryY=1;entryDx=0;entryDy=0;strokeWidth=3;" parent="1" source="enQtiHpY8bTpUroifT-B-37" target="enQtiHpY8bTpUroifT-B-46" edge="1">
          <mxGeometry relative="1" as="geometry" />
        </mxCell>
        <mxCell id="enQtiHpY8bTpUroifT-B-52" value="&lt;b&gt;&lt;font style=&quot;font-size: 18px;&quot;&gt;YES&lt;/font&gt;&lt;/b&gt;" style="edgeLabel;html=1;align=center;verticalAlign=middle;resizable=0;points=[];" parent="enQtiHpY8bTpUroifT-B-51" vertex="1" connectable="0">
          <mxGeometry x="-0.3127" y="1" relative="1" as="geometry">
            <mxPoint x="8" y="-1" as="offset" />
          </mxGeometry>
        </mxCell>
        <mxCell id="enQtiHpY8bTpUroifT-B-37" value="Is answer&lt;div&gt;&amp;nbsp;useful?&lt;/div&gt;" style="rhombus;whiteSpace=wrap;html=1;fillColor=#dae8fc;strokeColor=#6c8ebf;" parent="1" vertex="1">
          <mxGeometry x="895" y="720" width="110" height="105" as="geometry" />
        </mxCell>
        <mxCell id="enQtiHpY8bTpUroifT-B-44" value="&lt;b&gt;Final Answer:&lt;/b&gt;&lt;div&gt;Crizotinib has shown...&lt;br&gt;&lt;/div&gt;" style="rounded=1;whiteSpace=wrap;html=1;dashed=1;dashPattern=1 1;strokeWidth=2;fillColor=#e1d5e7;strokeColor=#9673a6;" parent="1" vertex="1">
          <mxGeometry x="340" y="480" width="168" height="70" as="geometry" />
        </mxCell>
        <mxCell id="enQtiHpY8bTpUroifT-B-45" value="&lt;div style=&quot;text-align: center;&quot;&gt;&lt;b style=&quot;background-color: initial;&quot;&gt;Retrieved Evidence:&lt;/b&gt;&lt;/div&gt;&lt;div&gt;&lt;span style=&quot;background-color: initial;&quot;&gt;&lt;br&gt;&lt;/span&gt;&lt;/div&gt;&lt;div&gt;&lt;span style=&quot;background-color: initial;&quot;&gt;&lt;span style=&quot;white-space: pre;&quot;&gt;&#x9;&lt;/span&gt;{&lt;/span&gt;&lt;/div&gt;&lt;div&gt;&lt;span style=&quot;white-space: pre;&quot;&gt;&#x9;&lt;/span&gt;&lt;b&gt;Evidence ID: &lt;/b&gt;1577&lt;br&gt;&lt;div&gt;&lt;span style=&quot;white-space: pre;&quot;&gt;&#x9;&lt;/span&gt;&lt;b&gt;D&lt;span style=&quot;background-color: initial;&quot;&gt;escription:&amp;nbsp;&lt;/span&gt;&lt;/b&gt;&lt;span style=&quot;background-color: initial;&quot;&gt;A phase-3...&lt;/span&gt;&lt;br&gt;&lt;/div&gt;&lt;/div&gt;&lt;div&gt;&lt;span style=&quot;background-color: initial;&quot;&gt;&lt;span style=&quot;white-space: pre;&quot;&gt;&#x9;&lt;/span&gt;},&lt;br&gt;&lt;/span&gt;&lt;/div&gt;&lt;div&gt;&lt;span style=&quot;background-color: initial;&quot;&gt;&lt;span style=&quot;white-space: pre;&quot;&gt;&#x9;&lt;/span&gt;{&lt;br&gt;&lt;/span&gt;&lt;/div&gt;&lt;div&gt;&lt;span style=&quot;background-color: initial;&quot;&gt;&lt;span style=&quot;white-space: pre;&quot;&gt;&#x9;&lt;/span&gt;&lt;b&gt;Evidence ID: &lt;/b&gt;1998&lt;br&gt;&lt;/span&gt;&lt;/div&gt;&lt;div&gt;&lt;span style=&quot;background-color: initial;&quot;&gt;&lt;span style=&quot;white-space: pre;&quot;&gt;&#x9;&lt;/span&gt;&lt;span style=&quot;white-space: pre;&quot;&gt;&#x9;&lt;/span&gt;&lt;span style=&quot;white-space: pre;&quot;&gt;&#x9;&lt;/span&gt;...&lt;br&gt;&lt;/span&gt;&lt;/div&gt;&lt;div&gt;&lt;span style=&quot;background-color: initial;&quot;&gt;&lt;span style=&quot;white-space: pre;&quot;&gt;&#x9;&lt;/span&gt;}&lt;br&gt;&lt;/span&gt;&lt;/div&gt;" style="rounded=1;whiteSpace=wrap;html=1;strokeWidth=2;fillColor=#e1d5e7;strokeColor=#9673a6;align=left;" parent="1" vertex="1">
          <mxGeometry x="336" y="570" width="176" height="160" as="geometry" />
        </mxCell>
        <mxCell id="enQtiHpY8bTpUroifT-B-46" value="" style="rounded=0;whiteSpace=wrap;html=1;fillColor=none;" parent="1" vertex="1">
          <mxGeometry x="314" y="440" width="220" height="300" as="geometry" />
        </mxCell>
        <mxCell id="enQtiHpY8bTpUroifT-B-47" value="&lt;span style=&quot;color: rgb(0, 0, 0); font-family: Helvetica; font-size: 18px; font-style: normal; font-variant-ligatures: normal; font-variant-caps: normal; font-weight: 400; letter-spacing: normal; orphans: 2; text-align: center; text-indent: 0px; text-transform: none; widows: 2; word-spacing: 0px; -webkit-text-stroke-width: 0px; white-space: nowrap; background-color: rgb(251, 251, 251); text-decoration-thickness: initial; text-decoration-style: initial; text-decoration-color: initial; display: inline !important; float: none;&quot;&gt;Final Output&lt;/span&gt;" style="text;whiteSpace=wrap;html=1;" parent="1" vertex="1">
          <mxGeometry x="378" y="440" width="100" height="50" as="geometry" />
        </mxCell>
        <mxCell id="enQtiHpY8bTpUroifT-B-54" style="edgeStyle=orthogonalEdgeStyle;rounded=0;orthogonalLoop=1;jettySize=auto;html=1;exitX=1;exitY=0.5;exitDx=0;exitDy=0;entryX=0;entryY=0.5;entryDx=0;entryDy=0;strokeWidth=3;" parent="1" source="enQtiHpY8bTpUroifT-B-53" target="j_u8a-5bsMv9L0YOcJD6-36" edge="1">
          <mxGeometry relative="1" as="geometry" />
        </mxCell>
        <mxCell id="enQtiHpY8bTpUroifT-B-53" value="&lt;b&gt;Evidence KB&lt;/b&gt;" style="shape=datastore;whiteSpace=wrap;html=1;fillColor=#0050ef;strokeColor=#001DBC;fontColor=#ffffff;" parent="1" vertex="1">
          <mxGeometry x="228" y="182.5" width="86" height="90" as="geometry" />
        </mxCell>
      </root>
    </mxGraphModel>
  </diagram>
</mxfile>
